<svg xmlns="http://www.w3.org/2000/svg" width="15" height="16" viewBox="0 0 15 16" fill="none">
  <g clip-path="url(#clip0_765_582)">
    <path d="M7.5 0.734375C3.48633 0.734375 0.234375 3.98633 0.234375 8C0.234375 12.0137 3.48633 15.2656 7.5 15.2656C11.5137 15.2656 14.7656 12.0137 14.7656 8C14.7656 3.98633 11.5137 0.734375 7.5 0.734375ZM4.21875 7.53125C4.21875 7.25879 4.33887 7.01855 4.52637 6.8457L3.61816 6.57324C3.36914 6.5 3.22852 6.23633 3.30469 5.99023C3.37793 5.74121 3.63867 5.60352 3.8877 5.67676L6.23145 6.37988C6.48047 6.45312 6.62109 6.7168 6.54492 6.96289C6.4834 7.16504 6.29883 7.29688 6.09668 7.29688C6.08203 7.29688 6.06445 7.29102 6.04688 7.29102C6.06738 7.37012 6.09668 7.44629 6.09668 7.53125C6.09668 8.0498 5.67773 8.46875 5.15918 8.46875C4.64062 8.46875 4.21875 8.0498 4.21875 7.53125ZM9.14062 12.0488C8.32617 11.0703 6.67383 11.0703 5.85645 12.0488C5.46094 12.5264 4.7373 11.9258 5.13574 11.4482C5.72168 10.7451 6.58301 10.3408 7.49707 10.3408C8.41113 10.3408 9.27246 10.7451 9.8584 11.4482C10.2627 11.9316 9.5332 12.5205 9.14062 12.0488ZM11.3848 6.57324L10.4766 6.8457C10.6611 7.01562 10.7842 7.25879 10.7842 7.53125C10.7842 8.0498 10.3652 8.46875 9.84668 8.46875C9.32812 8.46875 8.90918 8.0498 8.90918 7.53125C8.90918 7.44629 8.93555 7.36719 8.95898 7.29102C8.94141 7.29395 8.92676 7.29688 8.90918 7.29688C8.70703 7.29688 8.52246 7.16504 8.46094 6.96289C8.3877 6.71387 8.52832 6.45312 8.77441 6.37988L11.1182 5.67676C11.3643 5.60352 11.6279 5.74414 11.7012 5.99023C11.7744 6.23926 11.6338 6.5 11.3848 6.57324Z" fill="#FF0000"/>
  </g>
  <defs>
    <clipPath id="clip0_765_582">
      <rect width="15" height="15" fill="white" transform="translate(0 0.5)"/>
    </clipPath>
  </defs>
</svg>