<svg xmlns="http://www.w3.org/2000/svg" width="16" height="12" viewBox="0 0 16 12" fill="none">
  <path d="M8 0C3.58125 0 0 2.49375 0 5.57143C0 6.9 0.66875 8.11607 1.78125 9.07232C1.39062 10.4223 0.084375 11.625 0.06875 11.6384C0 11.7 -0.01875 11.7911 0.021875 11.8714C0.0625 11.9518 0.15 12 0.25 12C2.32188 12 3.875 11.1482 4.64375 10.6232C5.66563 10.9527 6.8 11.1429 8 11.1429C12.4187 11.1429 16 8.64911 16 5.57143C16 2.49375 12.4187 0 8 0ZM4 6.42857C3.44688 6.42857 3 6.04554 3 5.57143C3 5.09732 3.44688 4.71429 4 4.71429C4.55312 4.71429 5 5.09732 5 5.57143C5 6.04554 4.55312 6.42857 4 6.42857ZM8 6.42857C7.44688 6.42857 7 6.04554 7 5.57143C7 5.09732 7.44688 4.71429 8 4.71429C8.55313 4.71429 9 5.09732 9 5.57143C9 6.04554 8.55313 6.42857 8 6.42857ZM12 6.42857C11.4469 6.42857 11 6.04554 11 5.57143C11 5.09732 11.4469 4.71429 12 4.71429C12.5531 4.71429 13 5.09732 13 5.57143C13 6.04554 12.5531 6.42857 12 6.42857Z" fill="black"/>
</svg>