<svg xmlns="http://www.w3.org/2000/svg" width="16" height="12" viewBox="0 0 16 12" fill="none">
  <path d="M1.5 0C1.20333 0 0.913319 0.0812063 0.666645 0.23335C0.419972 0.385493 0.227713 0.601741 0.114181 0.854746C0.000649929 1.10775 -0.0290551 1.38615 0.0288228 1.65474C0.0867006 1.92333 0.229562 2.17004 0.439341 2.36369C0.649119 2.55733 0.916394 2.6892 1.20737 2.74263C1.49834 2.79605 1.79994 2.76863 2.07403 2.66383C2.34812 2.55903 2.58238 2.38157 2.74721 2.15387C2.91203 1.92617 3 1.65847 3 1.38462C3 1.01739 2.84197 0.66521 2.56066 0.405544C2.27936 0.145879 1.89783 0 1.5 0ZM1.5 4.61538C1.20333 4.61538 0.913319 4.69659 0.666645 4.84873C0.419972 5.00088 0.227713 5.21712 0.114181 5.47013C0.000649929 5.72314 -0.0290551 6.00154 0.0288228 6.27013C0.0867006 6.53871 0.229562 6.78543 0.439341 6.97907C0.649119 7.17271 0.916394 7.30458 1.20737 7.35801C1.49834 7.41144 1.79994 7.38402 2.07403 7.27922C2.34812 7.17442 2.58238 6.99695 2.74721 6.76925C2.91203 6.54155 3 6.27385 3 6C3 5.63278 2.84197 5.28059 2.56066 5.02093C2.27936 4.76126 1.89783 4.61538 1.5 4.61538ZM1.5 9.23077C1.20333 9.23077 0.913319 9.31197 0.666645 9.46412C0.419972 9.61626 0.227713 9.83251 0.114181 10.0855C0.000649929 10.3385 -0.0290551 10.6169 0.0288228 10.8855C0.0867006 11.1541 0.229562 11.4008 0.439341 11.5945C0.649119 11.7881 0.916394 11.92 1.20737 11.9734C1.49834 12.0268 1.79994 11.9994 2.07403 11.8946C2.34812 11.7898 2.58238 11.6123 2.74721 11.3846C2.91203 11.1569 3 10.8892 3 10.6154C3 10.2482 2.84197 9.89598 2.56066 9.63631C2.27936 9.37665 1.89783 9.23077 1.5 9.23077ZM15.5 9.69231H5.5C5.36739 9.69231 5.24022 9.74093 5.14645 9.82749C5.05268 9.91404 5 10.0314 5 10.1538V11.0769C5 11.1993 5.05268 11.3167 5.14645 11.4033C5.24022 11.4898 5.36739 11.5385 5.5 11.5385H15.5C15.6326 11.5385 15.7598 11.4898 15.8536 11.4033C15.9473 11.3167 16 11.1993 16 11.0769V10.1538C16 10.0314 15.9473 9.91404 15.8536 9.82749C15.7598 9.74093 15.6326 9.69231 15.5 9.69231ZM15.5 0.461538H5.5C5.36739 0.461538 5.24022 0.510165 5.14645 0.59672C5.05268 0.683275 5 0.800669 5 0.923077V1.84615C5 1.96856 5.05268 2.08596 5.14645 2.17251C5.24022 2.25907 5.36739 2.30769 5.5 2.30769H15.5C15.6326 2.30769 15.7598 2.25907 15.8536 2.17251C15.9473 2.08596 16 1.96856 16 1.84615V0.923077C16 0.800669 15.9473 0.683275 15.8536 0.59672C15.7598 0.510165 15.6326 0.461538 15.5 0.461538ZM15.5 5.07692H5.5C5.36739 5.07692 5.24022 5.12555 5.14645 5.2121C5.05268 5.29866 5 5.41605 5 5.53846V6.46154C5 6.58395 5.05268 6.70134 5.14645 6.7879C5.24022 6.87445 5.36739 6.92308 5.5 6.92308H15.5C15.6326 6.92308 15.7598 6.87445 15.8536 6.7879C15.9473 6.70134 16 6.58395 16 6.46154V5.53846C16 5.41605 15.9473 5.29866 15.8536 5.2121C15.7598 5.12555 15.6326 5.07692 15.5 5.07692Z" fill="black"/>
</svg>