<svg xmlns="http://www.w3.org/2000/svg" width="540" height="647" viewBox="0 0 540 647" fill="none">
<path d="M43.468 109.96H50.776V111.864H43.468V109.96ZM43.468 115H50.832V116.876H43.468V115ZM49.88 105.872H52.204V120.852H49.88V105.872ZM32.548 107.776H44.112V119.032H32.548V107.776ZM41.816 109.652H34.816V117.184H41.816V109.652ZM43.888 121.58C49.096 121.58 52.316 123.344 52.316 126.368C52.316 129.392 49.096 131.128 43.888 131.128C38.652 131.128 35.432 129.392 35.432 126.368C35.432 123.344 38.652 121.58 43.888 121.58ZM43.888 123.428C40.08 123.428 37.756 124.52 37.756 126.368C37.756 128.216 40.08 129.308 43.888 129.308C47.696 129.308 50.02 128.216 50.02 126.368C50.02 124.52 47.696 123.428 43.888 123.428ZM63.8498 109.484H65.7258V113.6C65.7258 118.948 62.5058 124.324 58.4738 126.312L57.1298 124.464C60.7978 122.728 63.8498 117.968 63.8498 113.6V109.484ZM64.2978 109.484H66.1738V113.6C66.1738 117.884 69.2258 122.252 72.9498 123.848L71.6338 125.696C67.5458 123.792 64.2978 118.864 64.2978 113.6V109.484ZM57.9698 108.448H72.1098V110.408H57.9698V108.448ZM75.5258 105.872H77.8498V131.184H75.5258V105.872ZM102.152 105.872H104.392V131.184H102.152V105.872ZM97.8676 116.008H102.74V117.94H97.8676V116.008ZM96.4116 106.432H98.5956V129.896H96.4116V106.432ZM83.8116 123.008H85.4636C89.1596 123.008 91.6796 122.868 94.6196 122.252L94.8436 124.184C91.8196 124.828 89.2716 124.94 85.4636 124.94H83.8116V123.008ZM83.8116 108.952H93.2196V110.856H86.1076V123.876H83.8116V108.952ZM108.729 108.532H123.681V110.436H108.729V108.532ZM116.205 111.724C119.789 111.724 122.253 113.516 122.253 116.316C122.253 119.088 119.789 120.852 116.205 120.852C112.565 120.852 110.129 119.088 110.129 116.316C110.129 113.516 112.565 111.724 116.205 111.724ZM116.205 113.544C113.881 113.544 112.341 114.608 112.341 116.316C112.341 117.968 113.881 119.06 116.205 119.06C118.473 119.06 120.041 117.968 120.041 116.316C120.041 114.608 118.473 113.544 116.205 113.544ZM125.977 105.872H128.301V121.692H125.977V105.872ZM127.657 112.844H132.053V114.776H127.657V112.844ZM111.865 123.064H128.301V131.184H125.977V124.968H111.865V123.064ZM115.029 105.732H117.353V109.596H115.029V105.732ZM136.783 108.392H153.079V110.324H136.783V108.392ZM134.431 125.724H157.307V127.656H134.431V125.724ZM140.031 117.352H142.327V126.424H140.031V117.352ZM152.323 108.392H154.619V111.192C154.619 114.412 154.619 117.716 153.751 122.448L151.427 122.168C152.323 117.688 152.323 114.328 152.323 111.192V108.392ZM146.275 117.352H148.571V126.424H146.275V117.352ZM168.393 107.692C172.341 107.692 175.169 110.128 175.169 113.656C175.169 117.212 172.341 119.648 168.393 119.648C164.445 119.648 161.589 117.212 161.589 113.656C161.589 110.128 164.445 107.692 168.393 107.692ZM168.393 109.708C165.761 109.708 163.857 111.304 163.857 113.656C163.857 116.008 165.761 117.632 168.393 117.632C170.997 117.632 172.901 116.008 172.901 113.656C172.901 111.304 170.997 109.708 168.393 109.708ZM178.473 105.844H180.797V131.212H178.473V105.844ZM160.637 125.668L160.301 123.736C164.921 123.736 171.305 123.708 176.821 122.84L177.017 124.548C171.333 125.64 165.145 125.668 160.637 125.668ZM49.796 188.872H52.12V201.976H49.796V188.872ZM35.768 203.264H52.148V209.34H38.092V212.812H35.824V207.604H49.852V205.084H35.768V203.264ZM35.824 212.056H52.988V213.904H35.824V212.056ZM37.98 189.6H39.912V191.532C39.912 196.208 37 200.184 32.716 201.752L31.568 199.904C35.376 198.56 37.98 195.2 37.98 191.532V189.6ZM38.4 189.6H40.304V191.532C40.304 195.032 42.964 198.196 46.716 199.428L45.568 201.248C41.312 199.792 38.4 196.068 38.4 191.532V189.6ZM63.8218 191.056H65.7258V195.592C65.7258 201.416 62.5898 206.82 58.4458 208.92L57.0178 207.016C60.7698 205.224 63.8218 200.38 63.8218 195.592V191.056ZM64.2138 191.056H66.1178V195.592C66.1178 200.212 69.1418 204.86 72.8938 206.596L71.4938 208.444C67.3778 206.428 64.2138 201.22 64.2138 195.592V191.056ZM75.5258 188.844H77.8498V214.212H75.5258V188.844ZM100.22 188.872H102.544V207.38H100.22V188.872ZM101.816 196.544H106.296V198.476H101.816V196.544ZM93.3036 190.832H95.7676C95.7676 197.384 91.1756 202.172 83.9236 204.496L82.9156 202.592C89.2996 200.632 93.3036 196.712 93.3036 191.84V190.832ZM83.9516 190.832H94.4796V192.736H83.9516V190.832ZM86.7516 211.72H103.664V213.624H86.7516V211.72ZM86.7516 205.504H89.0756V212.476H86.7516V205.504ZM135.991 190.496H138.427C138.427 196.88 133.947 201.444 126.667 203.488L125.715 201.668C132.127 199.848 135.991 196.18 135.991 191.476V190.496ZM127.031 190.496H137.559V192.372H127.031V190.496ZM143.943 188.872H146.267V203.32H143.943V188.872ZM138.454 195.368H144.391V197.3H138.454V195.368ZM129.943 204.384H146.267V213.848H129.943V204.384ZM143.999 206.26H132.239V211.944H143.999V206.26ZM156.512 190.384H158.36V193.772C158.36 197.58 156.204 201.584 152.48 203.292L151.22 201.472C154.524 199.988 156.512 196.656 156.512 193.772V190.384ZM156.876 190.384H158.724V193.772C158.724 196.656 160.6 199.54 163.848 200.856L162.616 202.648C158.948 201.108 156.876 197.552 156.876 193.772V190.384ZM170.316 188.9H172.528V204.188H170.316V188.9ZM166.228 195.452H171.016V197.384H166.228V195.452ZM164.884 189.32H167.096V204.048H164.884V189.32ZM155.56 205.56H172.528V214.184H170.232V207.464H155.56V205.56ZM183.726 190.804C187.394 190.804 190.026 194.248 190.026 199.624C190.026 205.028 187.394 208.472 183.726 208.472C180.03 208.472 177.426 205.028 177.426 199.624C177.426 194.248 180.03 190.804 183.726 190.804ZM183.726 192.904C181.29 192.904 179.638 195.536 179.638 199.624C179.638 203.74 181.29 206.428 183.726 206.428C186.162 206.428 187.814 203.74 187.814 199.624C187.814 195.536 186.162 192.904 183.726 192.904ZM195.514 188.844H197.81V214.212H195.514V188.844ZM189.27 198.504H196.522V200.408H189.27V198.504ZM209.12 201.64H211.444V207.688H209.12V201.64ZM210.268 190.496C214.16 190.496 216.96 192.932 216.96 196.46C216.96 199.988 214.16 202.424 210.268 202.424C206.376 202.424 203.576 199.988 203.576 196.46C203.576 192.932 206.376 190.496 210.268 190.496ZM210.268 192.484C207.692 192.484 205.844 194.108 205.844 196.46C205.844 198.812 207.692 200.436 210.268 200.436C212.844 200.436 214.692 198.812 214.692 196.46C214.692 194.108 212.844 192.484 210.268 192.484ZM219.844 188.872H222.168V214.184H219.844V188.872ZM221.496 199.288H226.172V201.248H221.496V199.288ZM202.764 208.724L202.428 206.792C206.992 206.764 213.096 206.736 218.248 206.036L218.444 207.772C213.096 208.668 207.188 208.724 202.764 208.724ZM258.695 195.844H265.079V197.748H258.695V195.844ZM263.763 188.9H266.087V207.436H263.763V188.9ZM249.931 211.72H266.787V213.624H249.931V211.72ZM249.931 205.812H252.255V212.7H249.931V205.812ZM251.723 192.036H253.627V194.08C253.627 198.672 250.771 202.648 246.543 204.216L245.339 202.368C249.119 201.024 251.723 197.664 251.723 194.08V192.036ZM252.171 192.036H254.047V194.052C254.047 197.328 256.511 200.52 260.179 201.808L259.003 203.628C254.887 202.144 252.171 198.336 252.171 194.052V192.036ZM246.067 190.944H259.591V192.82H246.067V190.944ZM276.669 197.44H278.965V202.228H276.669V197.44ZM285.965 197.44H288.261V202.228H285.965V197.44ZM271.013 201.388H293.889V203.264H271.013V201.388ZM282.437 205.168C287.869 205.168 291.117 206.764 291.117 209.648C291.117 212.532 287.869 214.156 282.437 214.156C277.005 214.156 273.757 212.532 273.757 209.648C273.757 206.764 277.005 205.168 282.437 205.168ZM282.437 206.96C278.489 206.96 276.109 207.94 276.109 209.648C276.109 211.384 278.489 212.336 282.437 212.336C286.413 212.336 288.765 211.384 288.765 209.648C288.765 207.94 286.413 206.96 282.437 206.96ZM282.465 189.32C287.953 189.32 291.369 191.084 291.369 194.052C291.369 196.992 287.953 198.728 282.465 198.728C276.949 198.728 273.561 196.992 273.561 194.052C273.561 191.084 276.949 189.32 282.465 189.32ZM282.465 191.14C278.433 191.14 275.941 192.204 275.941 194.052C275.941 195.872 278.433 196.936 282.465 196.936C286.497 196.936 288.989 195.872 288.989 194.052C288.989 192.204 286.497 191.14 282.465 191.14ZM318.852 193.436H320.616V194.136C320.616 198.14 318.572 201.976 314.904 203.572L313.784 201.808C316.976 200.436 318.852 197.272 318.852 194.136V193.436ZM319.3 193.436H321.036V194.136C321.036 197.048 322.996 199.988 326.16 201.248L325.068 202.984C321.372 201.528 319.3 197.944 319.3 194.136V193.436ZM314.26 192.232H325.544V194.08H314.26V192.232ZM318.852 189.264H321.036V193.072H318.852V189.264ZM332.684 188.9H334.896V206.008H332.684V188.9ZM328.708 195.312H333.496V197.244H328.708V195.312ZM327.308 189.32H329.492V203.824H327.308V189.32ZM325.348 204.972H327.308V205.56C327.308 210.012 322.744 213.204 317.648 214.1L316.78 212.28C321.232 211.58 325.348 208.836 325.348 205.56V204.972ZM325.656 204.972H327.644V205.56C327.644 208.836 331.76 211.58 336.212 212.28L335.344 214.1C330.248 213.204 325.656 210.012 325.656 205.56V204.972ZM342.369 189.516H344.665V192.316H356.901V189.516H359.225V198.868H342.369V189.516ZM344.665 194.136V196.992H356.901V194.136H344.665ZM339.317 201.696H362.193V203.572H339.317V201.696ZM349.621 197.972H351.917V202.2H349.621V197.972ZM349.593 205.252H351.581V205.924C351.581 210.348 347.129 213.26 341.949 214.1L341.109 212.28C345.701 211.636 349.593 209.172 349.593 205.924V205.252ZM349.957 205.252H351.945V205.924C351.945 209.172 355.809 211.636 360.429 212.28L359.561 214.1C354.381 213.26 349.957 210.348 349.957 205.924V205.252ZM365.075 202.172H387.951V204.076H365.075V202.172ZM368.043 211.72H385.431V213.624H368.043V211.72ZM368.043 206.288H370.367V212.308H368.043V206.288ZM376.527 189.712C381.931 189.712 385.431 191.616 385.431 194.78C385.431 197.916 381.931 199.82 376.527 199.82C371.095 199.82 367.623 197.916 367.623 194.78C367.623 191.616 371.095 189.712 376.527 189.712ZM376.527 191.616C372.551 191.616 370.003 192.792 370.003 194.78C370.003 196.768 372.551 197.944 376.527 197.944C380.503 197.944 383.051 196.768 383.051 194.78C383.051 192.792 380.503 191.616 376.527 191.616ZM396.153 205.98V201.584C397.758 201.509 399.018 201.164 399.933 200.548C400.848 199.913 401.305 198.961 401.305 197.692V197.3C401.305 196.255 400.988 195.471 400.353 194.948C399.737 194.425 398.888 194.164 397.805 194.164C396.685 194.164 395.789 194.472 395.117 195.088C394.445 195.704 393.978 196.488 393.717 197.44L391.617 196.656C391.804 196.04 392.065 195.461 392.401 194.92C392.737 194.36 393.157 193.875 393.661 193.464C394.184 193.053 394.79 192.727 395.481 192.484C396.19 192.241 396.993 192.12 397.889 192.12C398.785 192.12 399.588 192.251 400.297 192.512C401.025 192.755 401.641 193.109 402.145 193.576C402.649 194.024 403.041 194.575 403.321 195.228C403.601 195.881 403.741 196.609 403.741 197.412C403.741 198.289 403.582 199.064 403.265 199.736C402.948 200.389 402.537 200.949 402.033 201.416C401.529 201.883 400.95 202.265 400.297 202.564C399.662 202.844 399.018 203.04 398.365 203.152V205.98H396.153ZM397.357 212.252C396.592 212.252 396.05 212.093 395.733 211.776C395.434 211.459 395.285 211.057 395.285 210.572V210.068C395.285 209.583 395.434 209.181 395.733 208.864C396.05 208.547 396.592 208.388 397.357 208.388C398.122 208.388 398.654 208.547 398.953 208.864C399.27 209.181 399.429 209.583 399.429 210.068V210.572C399.429 211.057 399.27 211.459 398.953 211.776C398.654 212.093 398.122 212.252 397.357 212.252Z" fill="black"/>
<path d="M42.72 264.48C39.0667 264.48 36.36 263.227 34.6 260.72C32.8667 258.213 32 254.653 32 250.04C32 245.453 32.8667 241.907 34.6 239.4C36.36 236.867 39.0667 235.6 42.72 235.6C44.1067 235.6 45.32 235.787 46.36 236.16C47.4267 236.533 48.3467 237.053 49.12 237.72C49.8933 238.36 50.5333 239.147 51.04 240.08C51.5467 240.987 51.9467 241.987 52.24 243.08L47.44 244.44C47.2533 243.8 47.04 243.2 46.8 242.64C46.56 242.08 46.2533 241.6 45.88 241.2C45.5333 240.773 45.0933 240.453 44.56 240.24C44.0267 240 43.3867 239.88 42.64 239.88C40.8267 239.88 39.52 240.573 38.72 241.96C37.9467 243.347 37.56 245.24 37.56 247.64V252.44C37.56 254.84 37.9467 256.733 38.72 258.12C39.52 259.507 40.8267 260.2 42.64 260.2C43.3867 260.2 44.0267 260.093 44.56 259.88C45.0933 259.64 45.5333 259.32 45.88 258.92C46.2533 258.493 46.56 258 46.8 257.44C47.04 256.88 47.2533 256.28 47.44 255.64L52.24 257C51.9467 258.093 51.5467 259.107 51.04 260.04C50.5333 260.947 49.8933 261.733 49.12 262.4C48.3467 263.04 47.4267 263.547 46.36 263.92C45.32 264.293 44.1067 264.48 42.72 264.48ZM56.9844 234.4H62.1044V247H62.3044C62.7577 245.88 63.451 244.92 64.3844 244.12C65.3444 243.293 66.6644 242.88 68.3444 242.88C70.371 242.88 72.011 243.56 73.2644 244.92C74.5444 246.253 75.1844 248.173 75.1844 250.68V264H70.0644V251.4C70.0644 248.413 68.771 246.92 66.1844 246.92C65.651 246.92 65.1444 246.987 64.6644 247.12C64.1844 247.253 63.7444 247.467 63.3444 247.76C62.971 248.027 62.6644 248.36 62.4244 248.76C62.211 249.16 62.1044 249.64 62.1044 250.2V264H56.9844V234.4ZM97.5688 264C96.3154 264 95.3421 263.693 94.6488 263.08C93.9821 262.44 93.5821 261.56 93.4488 260.44H93.2488C92.8754 261.72 92.1421 262.72 91.0488 263.44C89.9554 264.133 88.6088 264.48 87.0088 264.48C84.9288 264.48 83.2754 263.933 82.0488 262.84C80.8221 261.747 80.2088 260.227 80.2088 258.28C80.2088 254.12 83.2621 252.04 89.3688 252.04H93.0088V250.68C93.0088 249.373 92.6888 248.387 92.0488 247.72C91.4088 247.053 90.3688 246.72 88.9288 246.72C87.6221 246.72 86.5688 246.973 85.7688 247.48C84.9688 247.987 84.2888 248.64 83.7288 249.44L80.8088 246.96C81.4488 245.813 82.4754 244.853 83.8888 244.08C85.3288 243.28 87.1821 242.88 89.4488 242.88C92.1688 242.88 94.2888 243.52 95.8088 244.8C97.3554 246.053 98.1288 247.933 98.1288 250.44V260.16H100.569V264H97.5688ZM88.7288 260.96C89.9554 260.96 90.9688 260.68 91.7688 260.12C92.5954 259.533 93.0088 258.747 93.0088 257.76V255H89.4888C86.6888 255 85.2888 255.88 85.2888 257.64V258.44C85.2888 259.267 85.5954 259.893 86.2088 260.32C86.8221 260.747 87.6621 260.96 88.7288 260.96ZM115.353 264C113.38 264 111.926 263.48 110.993 262.44C110.06 261.4 109.593 260.053 109.593 258.4V247.4H103.593V243.36H107.673C108.5 243.36 109.086 243.2 109.433 242.88C109.78 242.533 109.953 241.933 109.953 241.08V236.08H114.713V243.36H123.113V247.4H114.713V259.96H123.113V264H115.353ZM133.658 236.08V253.48C133.658 254.52 133.684 255.453 133.738 256.28C133.818 257.107 133.991 257.813 134.258 258.4C134.551 258.96 134.978 259.4 135.538 259.72C136.124 260.04 136.924 260.2 137.938 260.2C138.951 260.2 139.738 260.04 140.298 259.72C140.884 259.4 141.311 258.96 141.578 258.4C141.871 257.813 142.044 257.107 142.098 256.28C142.178 255.453 142.218 254.52 142.218 253.48V236.08H147.458V252.68C147.458 254.653 147.338 256.373 147.098 257.84C146.858 259.307 146.391 260.533 145.698 261.52C145.004 262.507 144.031 263.253 142.778 263.76C141.551 264.24 139.938 264.48 137.938 264.48C135.938 264.48 134.311 264.24 133.058 263.76C131.831 263.253 130.871 262.507 130.178 261.52C129.484 260.533 129.018 259.307 128.778 257.84C128.538 256.373 128.418 254.653 128.418 252.68V236.08H133.658ZM152.922 264V243.36H158.042V247H158.242C158.695 245.88 159.389 244.92 160.322 244.12C161.282 243.293 162.602 242.88 164.282 242.88C166.309 242.88 167.949 243.56 169.202 244.92C170.482 246.253 171.122 248.173 171.122 250.68V264H166.002V251.4C166.002 248.413 164.709 246.92 162.122 246.92C161.589 246.92 161.082 246.987 160.602 247.12C160.122 247.253 159.682 247.467 159.282 247.76C158.909 248.027 158.602 248.36 158.362 248.76C158.149 249.16 158.042 249.64 158.042 250.2V264H152.922ZM187.186 240.16C185.986 240.16 185.133 239.907 184.626 239.4C184.146 238.893 183.906 238.28 183.906 237.56V236.6C183.906 235.88 184.146 235.267 184.626 234.76C185.133 234.253 185.986 234 187.186 234C188.386 234 189.226 234.253 189.706 234.76C190.213 235.267 190.466 235.88 190.466 236.6V237.56C190.466 238.28 190.213 238.893 189.706 239.4C189.226 239.907 188.386 240.16 187.186 240.16ZM177.826 259.96H184.626V247.4H177.826V243.36H189.746V259.96H196.066V264H177.826V259.96ZM206.811 264L199.411 243.36H204.771L207.531 252.12L209.851 259.72H210.131L212.451 252.12L215.211 243.36H220.371L212.971 264H206.811Z" fill="#BF30E2"/>
<rect x="30" y="355" width="60" height="60" rx="30" fill="white"/>
<path d="M68.8889 380.143C68.8889 373.434 62.4236 368 54.4444 368C46.4653 368 40 373.434 40 380.143C40 382.746 40.9792 385.144 42.6389 387.125C41.7083 389.417 40.1736 391.238 40.1528 391.261C40 391.436 39.9583 391.694 40.0486 391.921C40.1389 392.149 40.3333 392.286 40.5556 392.286C43.0972 392.286 45.2014 391.352 46.7153 390.388C48.9514 391.58 51.5972 392.286 54.4444 392.286C62.4236 392.286 68.8889 386.852 68.8889 380.143ZM77.3611 396.839C79.0208 394.866 80 392.46 80 389.857C80 384.78 76.2847 380.431 71.0208 378.617C71.0833 379.118 71.1111 379.627 71.1111 380.143C71.1111 388.18 63.6319 394.714 54.4444 394.714C53.6944 394.714 52.9653 394.654 52.2431 394.57C54.4306 398.934 59.5694 402 65.5556 402C68.4028 402 71.0486 401.302 73.2847 400.103C74.7986 401.067 76.9028 402 79.4444 402C79.6667 402 79.8681 401.856 79.9514 401.636C80.0417 401.416 80 401.158 79.8472 400.975C79.8264 400.953 78.2917 399.139 77.3611 396.839Z" fill="#BF30E2"/>
<path opacity="0.8" d="M114.68 368.1H115.96V369.04C115.96 372.62 114.46 376.24 111.82 377.82L110.82 376.56C113.28 375.12 114.68 371.98 114.68 369.04V368.1ZM114.98 368.1H116.26V369.04C116.26 371.9 117.72 374.86 120.14 376.18L119.2 377.42C116.54 375.94 114.98 372.52 114.98 369.04V368.1ZM111.28 366.84H119.66V368.2H111.28V366.84ZM114.68 364.12H116.28V367.86H114.68V364.12ZM124.82 363.48H126.4V381.56H124.82V363.48ZM121.96 370.76H125.44V372.16H121.96V370.76ZM120.88 363.86H122.44V380.66H120.88V363.86ZM130.438 372.06H131.898C135.798 372.06 137.938 371.98 140.478 371.56L140.658 372.88C138.038 373.34 135.838 373.4 131.898 373.4H130.438V372.06ZM130.438 364.8H139.038V366.14H132.078V372.74H130.438V364.8ZM131.538 368.38H138.538V369.7H131.538V368.38ZM142.538 363.5H144.218V374.68H142.538V363.5ZM138.238 374.94C141.998 374.94 144.298 376.14 144.298 378.22C144.298 380.32 141.998 381.52 138.238 381.52C134.458 381.52 132.158 380.32 132.158 378.22C132.158 376.14 134.458 374.94 138.238 374.94ZM138.238 376.26C135.478 376.26 133.818 376.98 133.818 378.22C133.818 379.5 135.478 380.22 138.238 380.22C140.978 380.22 142.638 379.5 142.638 378.22C142.638 376.98 140.978 376.26 138.238 376.26ZM156.057 374.82C159.737 374.82 161.997 376.06 161.997 378.18C161.997 380.3 159.737 381.54 156.057 381.54C152.377 381.54 150.117 380.3 150.117 378.18C150.117 376.06 152.377 374.82 156.057 374.82ZM156.057 376.16C153.377 376.16 151.737 376.9 151.737 378.18C151.737 379.48 153.377 380.22 156.057 380.22C158.737 380.22 160.377 379.48 160.377 378.18C160.377 376.9 158.737 376.16 156.057 376.16ZM160.157 363.48H161.817V374.34H160.157V363.48ZM161.357 368.02H164.497V369.42H161.357V368.02ZM148.537 364.62H150.177V367.32H155.277V364.62H156.897V372.96H148.537V364.62ZM150.177 368.64V371.62H155.277V368.64H150.177ZM174.355 363.78C178.335 363.78 180.715 364.9 180.715 366.92C180.715 368.94 178.335 370.06 174.355 370.06C170.355 370.06 167.995 368.94 167.995 366.92C167.995 364.9 170.355 363.78 174.355 363.78ZM174.355 365.04C171.395 365.04 169.695 365.72 169.695 366.92C169.695 368.12 171.395 368.8 174.355 368.8C177.295 368.8 178.995 368.12 178.995 366.92C178.995 365.72 177.295 365.04 174.355 365.04ZM166.175 371.26H182.515V372.6H166.175V371.26ZM168.155 374.14H180.435V378.22H169.835V380.42H168.195V377.02H178.795V375.42H168.155V374.14ZM168.195 380.06H180.975V381.36H168.195V380.06ZM197.326 365.1H205.626V373.48H197.326V365.1ZM204.006 366.44H198.946V372.14H204.006V366.44ZM208.946 363.46H210.606V376.72H208.946V363.46ZM210.086 368.98H213.286V370.36H210.086V368.98ZM199.346 379.8H211.426V381.16H199.346V379.8ZM199.346 375.46H201.006V380.38H199.346V375.46ZM214.984 371.02H231.324V372.38H214.984V371.02ZM217.144 368.22H229.384V369.56H217.144V368.22ZM217.144 364.06H229.184V365.42H218.784V369.3H217.144V364.06ZM216.944 373.94H229.224V378.2H218.624V380.48H216.984V376.96H227.584V375.24H216.944V373.94ZM216.984 380.04H229.764V381.36H216.984V380.04ZM238.203 364.86C240.823 364.86 242.703 367.32 242.703 371.16C242.703 375.02 240.823 377.48 238.203 377.48C235.563 377.48 233.703 375.02 233.703 371.16C233.703 367.32 235.563 364.86 238.203 364.86ZM238.203 366.36C236.463 366.36 235.283 368.24 235.283 371.16C235.283 374.1 236.463 376.02 238.203 376.02C239.943 376.02 241.123 374.1 241.123 371.16C241.123 368.24 239.943 366.36 238.203 366.36ZM246.623 363.46H248.263V381.58H246.623V363.46ZM242.163 370.36H247.343V371.72H242.163V370.36ZM269.233 380.24C267.527 380.24 266.253 379.62 265.413 378.38C264.587 377.14 264.173 375.353 264.173 373.02C264.173 370.687 264.587 368.9 265.413 367.66C266.253 366.42 267.527 365.8 269.233 365.8C269.873 365.8 270.427 365.887 270.893 366.06C271.36 366.233 271.76 366.467 272.093 366.76C272.427 367.053 272.707 367.387 272.933 367.76C273.16 368.12 273.36 368.487 273.533 368.86L272.093 369.52C271.973 369.213 271.833 368.927 271.673 368.66C271.513 368.38 271.32 368.14 271.093 367.94C270.88 367.727 270.62 367.56 270.313 367.44C270.02 367.32 269.66 367.26 269.233 367.26C268.127 367.26 267.3 367.68 266.753 368.52C266.22 369.36 265.953 370.48 265.953 371.88V374.16C265.953 375.56 266.22 376.68 266.753 377.52C267.3 378.36 268.127 378.78 269.233 378.78C269.66 378.78 270.02 378.72 270.313 378.6C270.62 378.48 270.88 378.32 271.093 378.12C271.32 377.907 271.513 377.667 271.673 377.4C271.833 377.12 271.973 376.827 272.093 376.52L273.533 377.18C273.36 377.567 273.16 377.94 272.933 378.3C272.707 378.66 272.427 378.987 272.093 379.28C271.76 379.573 271.36 379.807 270.893 379.98C270.427 380.153 269.873 380.24 269.233 380.24ZM276.726 365.2H278.326V371.36H278.406C278.512 371.107 278.646 370.867 278.806 370.64C278.966 370.4 279.159 370.193 279.386 370.02C279.626 369.847 279.906 369.707 280.226 369.6C280.546 369.493 280.919 369.44 281.346 369.44C282.426 369.44 283.292 369.787 283.946 370.48C284.599 371.16 284.926 372.127 284.926 373.38V380H283.326V373.66C283.326 372.713 283.119 372.013 282.706 371.56C282.292 371.093 281.686 370.86 280.886 370.86C280.566 370.86 280.252 370.9 279.946 370.98C279.639 371.06 279.366 371.18 279.126 371.34C278.886 371.5 278.692 371.707 278.546 371.96C278.399 372.213 278.326 372.507 278.326 372.84V380H276.726V365.2ZM296.658 380C296.031 380 295.584 379.84 295.318 379.52C295.051 379.2 294.884 378.8 294.818 378.32H294.718C294.491 378.92 294.124 379.393 293.618 379.74C293.124 380.073 292.458 380.24 291.618 380.24C290.538 380.24 289.678 379.96 289.038 379.4C288.398 378.84 288.078 378.073 288.078 377.1C288.078 376.14 288.424 375.4 289.118 374.88C289.824 374.36 290.958 374.1 292.518 374.1H294.718V373.08C294.718 372.32 294.504 371.753 294.078 371.38C293.651 370.993 293.044 370.8 292.258 370.8C291.564 370.8 290.998 370.94 290.558 371.22C290.118 371.487 289.764 371.853 289.498 372.32L288.418 371.52C288.551 371.253 288.731 370.993 288.958 370.74C289.184 370.487 289.464 370.267 289.798 370.08C290.131 369.88 290.511 369.727 290.938 369.62C291.364 369.5 291.838 369.44 292.358 369.44C293.571 369.44 294.531 369.747 295.238 370.36C295.958 370.973 296.318 371.827 296.318 372.92V378.6H297.758V380H296.658ZM291.898 378.9C292.311 378.9 292.684 378.853 293.018 378.76C293.364 378.653 293.664 378.52 293.918 378.36C294.171 378.187 294.364 377.987 294.498 377.76C294.644 377.52 294.718 377.267 294.718 377V375.3H292.518C291.558 375.3 290.858 375.433 290.418 375.7C289.978 375.967 289.758 376.353 289.758 376.86V377.28C289.758 377.813 289.944 378.22 290.318 378.5C290.704 378.767 291.231 378.9 291.898 378.9ZM305.25 380C304.463 380 303.883 379.78 303.51 379.34C303.15 378.9 302.97 378.333 302.97 377.64V371.04H299.53V369.68H302.09C302.437 369.68 302.677 369.613 302.81 369.48C302.957 369.333 303.03 369.087 303.03 368.74V366.04H304.57V369.68H309.27V371.04H304.57V378.64H309.27V380H305.25ZM319.622 378.14H319.522C319.402 378.407 319.262 378.667 319.102 378.92C318.942 379.173 318.736 379.4 318.482 379.6C318.242 379.787 317.949 379.94 317.602 380.06C317.256 380.18 316.842 380.24 316.362 380.24C314.842 380.24 313.709 379.627 312.962 378.4C312.229 377.173 311.862 375.413 311.862 373.12C311.862 370.72 312.269 368.9 313.082 367.66C313.896 366.42 315.149 365.8 316.842 365.8C317.496 365.8 318.062 365.887 318.542 366.06C319.022 366.233 319.429 366.467 319.762 366.76C320.109 367.053 320.396 367.387 320.622 367.76C320.849 368.12 321.036 368.487 321.182 368.86L319.742 369.52C319.622 369.213 319.482 368.927 319.322 368.66C319.176 368.38 318.989 368.14 318.762 367.94C318.549 367.727 318.289 367.56 317.982 367.44C317.676 367.32 317.316 367.26 316.902 367.26C315.782 367.26 314.956 367.68 314.422 368.52C313.902 369.36 313.642 370.48 313.642 371.88V374.04C313.642 374.747 313.696 375.393 313.802 375.98C313.909 376.553 314.082 377.053 314.322 377.48C314.576 377.907 314.896 378.24 315.282 378.48C315.682 378.707 316.169 378.82 316.742 378.82C317.649 378.82 318.356 378.547 318.862 378C319.369 377.453 319.622 376.747 319.622 375.88V374.44H316.682V373.1H321.182V380H319.622V378.14ZM324.534 380V366.04H329.614C330.908 366.04 331.894 366.393 332.574 367.1C333.254 367.807 333.594 368.793 333.594 370.06C333.594 371.327 333.254 372.313 332.574 373.02C331.894 373.727 330.908 374.08 329.614 374.08H326.214V380H324.534ZM326.214 372.62H329.574C330.281 372.62 330.828 372.447 331.214 372.1C331.614 371.74 331.814 371.233 331.814 370.58V369.54C331.814 368.887 331.614 368.387 331.214 368.04C330.828 367.68 330.281 367.5 329.574 367.5H326.214V372.62ZM341.567 367.5V380H339.887V367.5H335.227V366.04H346.227V367.5H341.567ZM352.279 372.6H353.939V376.92H352.279V372.6ZM353.099 364.64C355.879 364.64 357.879 366.38 357.879 368.9C357.879 371.42 355.879 373.16 353.099 373.16C350.319 373.16 348.319 371.42 348.319 368.9C348.319 366.38 350.319 364.64 353.099 364.64ZM353.099 366.06C351.259 366.06 349.939 367.22 349.939 368.9C349.939 370.58 351.259 371.74 353.099 371.74C354.939 371.74 356.259 370.58 356.259 368.9C356.259 367.22 354.939 366.06 353.099 366.06ZM359.939 363.48H361.599V381.56H359.939V363.48ZM361.119 370.92H364.459V372.32H361.119V370.92ZM347.739 377.66L347.499 376.28C350.759 376.26 355.119 376.24 358.799 375.74L358.939 376.98C355.119 377.62 350.899 377.66 347.739 377.66ZM391.849 363.48H393.449V381.56H391.849V363.48ZM388.789 370.72H392.269V372.1H388.789V370.72ZM387.749 363.88H389.309V380.64H387.749V363.88ZM378.749 375.72H379.929C382.569 375.72 384.369 375.62 386.469 375.18L386.629 376.56C384.469 377.02 382.649 377.1 379.929 377.1H378.749V375.72ZM378.749 365.68H385.469V367.04H380.389V376.34H378.749V365.68ZM401.188 374.26H402.848V377.2H401.188V374.26ZM408.788 363.48H410.448V381.56H408.788V363.48ZM409.908 371.16H413.248V372.56H409.908V371.16ZM396.528 378.12L396.288 376.74C399.528 376.74 403.948 376.7 407.688 376.16L407.828 377.4C403.928 378.1 399.688 378.12 396.528 378.12ZM396.588 365.66H407.408V367H396.588V365.66ZM402.008 368.06C404.528 368.06 406.268 369.38 406.268 371.4C406.268 373.44 404.528 374.74 402.008 374.74C399.488 374.74 397.768 373.44 397.768 371.4C397.768 369.38 399.488 368.06 402.008 368.06ZM402.008 369.34C400.388 369.34 399.328 370.16 399.328 371.4C399.328 372.64 400.388 373.46 402.008 373.46C403.628 373.46 404.708 372.64 404.708 371.4C404.708 370.16 403.628 369.34 402.008 369.34ZM401.188 363.5H402.848V366.56H401.188V363.5ZM427.266 363.42H428.926V373.4H427.266V363.42ZM428.226 367.76H431.606V369.16H428.226V367.76ZM417.446 374.32H428.926V378.36H419.126V380.56H417.486V377.16H427.306V375.58H417.446V374.32ZM417.486 380.08H429.586V381.36H417.486V380.08ZM414.946 365.1H425.626V366.4H414.946V365.1ZM420.286 367.2C422.886 367.2 424.606 368.34 424.606 370.18C424.606 372 422.886 373.12 420.286 373.12C417.646 373.12 415.946 372 415.946 370.18C415.946 368.34 417.646 367.2 420.286 367.2ZM420.286 368.42C418.606 368.42 417.526 369.1 417.526 370.18C417.526 371.24 418.606 371.92 420.286 371.92C421.946 371.92 423.026 371.24 423.026 370.18C423.026 369.1 421.946 368.42 420.286 368.42ZM419.446 363.28H421.106V366H419.446V363.28ZM452.597 364.12H454.057V365.12C454.057 368.58 450.537 371.06 446.777 371.7L446.117 370.36C449.417 369.86 452.597 367.7 452.597 365.12V364.12ZM452.897 364.12H454.337V365.12C454.337 367.64 457.557 369.86 460.817 370.36L460.157 371.7C456.437 371.06 452.897 368.54 452.897 365.12V364.12ZM452.597 374.68H454.237V381.56H452.597V374.68ZM445.297 373.66H461.637V375.04H445.297V373.66ZM480.188 374.6H481.468V375.58C481.468 377.94 479.988 380.32 477.388 381.32L476.548 380.08C478.828 379.26 480.188 377.32 480.188 375.58V374.6ZM480.548 374.6H481.788V375.58C481.788 377.4 482.868 379.34 485.028 380.22L484.328 381.48C481.728 380.46 480.548 377.98 480.548 375.58V374.6ZM486.868 374.6H488.108V375.58C488.108 377.7 486.908 380.38 484.328 381.48L483.628 380.22C485.768 379.24 486.868 377.14 486.868 375.58V374.6ZM487.208 374.6H488.488V375.58C488.488 377.44 489.828 379.3 492.128 380.08L491.288 381.32C488.648 380.36 487.208 378.08 487.208 375.58V374.6ZM488.828 363.5H490.508V373.82H488.828V363.5ZM480.808 364.54C483.548 364.54 485.508 366.26 485.508 368.76C485.508 371.26 483.548 372.96 480.808 372.96C478.068 372.96 476.088 371.26 476.088 368.76C476.088 366.26 478.068 364.54 480.808 364.54ZM480.808 365.92C479.008 365.92 477.708 367.08 477.708 368.76C477.708 370.44 479.008 371.58 480.808 371.58C482.608 371.58 483.908 370.44 483.908 368.76C483.908 367.08 482.608 365.92 480.808 365.92ZM495.806 365.28H507.446V366.66H495.806V365.28ZM494.086 377.66H510.426V379.04H494.086V377.66ZM500.426 371.2H502.086V378.34H500.426V371.2ZM506.826 365.28H508.466V367.08C508.466 369.32 508.466 371.8 507.806 375.46L506.146 375.24C506.826 371.78 506.826 369.24 506.826 367.08V365.28ZM516.624 377.28H519.204L516.904 382.82H515.564L516.624 377.28ZM123.22 389.46H124.9V407.58H123.22V389.46ZM124.5 396.6H127.86V398H124.5V396.6ZM111.76 401.68H113.18C116.52 401.68 118.86 401.56 121.56 401.06L121.74 402.46C118.96 402.98 116.58 403.08 113.18 403.08H111.76V401.68ZM111.76 391.22H120.16V392.58H113.4V402.3H111.76V391.22ZM129.378 399.5H145.778V400.84H129.378V399.5ZM131.538 405.8H144.058V407.16H131.538V405.8ZM131.538 402.26H133.198V406.32H131.538V402.26ZM131.458 390.08H143.658V394.56H133.138V397H131.498V393.34H142.038V391.38H131.458V390.08ZM131.498 396.56H144.058V397.86H131.498V396.56ZM163.969 400.66H165.669V407.56H163.969V400.66ZM170.189 400.66H171.889V407.56H170.189V400.66ZM159.769 399.76H176.169V401.14H159.769V399.76ZM167.929 390.2C171.709 390.2 174.249 391.72 174.249 394.14C174.249 396.54 171.709 398.08 167.929 398.08C164.169 398.08 161.609 396.54 161.609 394.14C161.609 391.72 164.169 390.2 167.929 390.2ZM167.929 391.54C165.169 391.54 163.289 392.56 163.289 394.14C163.289 395.72 165.169 396.74 167.929 396.74C170.689 396.74 172.549 395.72 172.549 394.14C172.549 392.56 170.689 391.54 167.929 391.54ZM191.408 389.46H193.048V407.58H191.408V389.46ZM187.508 396.06H191.888V397.42H187.508V396.06ZM182.768 392.06H184.108V394.76C184.108 398.66 181.868 402.52 179.008 404L178.028 402.68C180.628 401.4 182.768 397.98 182.768 394.76V392.06ZM183.108 392.06H184.428V394.76C184.428 397.78 186.528 401.08 189.148 402.32L188.168 403.62C185.308 402.2 183.108 398.48 183.108 394.76V392.06ZM178.688 391.32H188.528V392.7H178.688V391.32ZM196.586 397.02H212.926V398.38H196.586V397.02ZM198.746 394.22H210.986V395.56H198.746V394.22ZM198.746 390.06H210.786V391.42H200.386V395.3H198.746V390.06ZM198.546 399.94H210.826V404.2H200.226V406.48H198.586V402.96H209.186V401.24H198.546V399.94ZM198.586 406.04H211.366V407.36H198.586V406.04ZM220.844 390.78C223.664 390.78 225.684 392.52 225.684 395.04C225.684 397.58 223.664 399.32 220.844 399.32C218.024 399.32 215.984 397.58 215.984 395.04C215.984 392.52 218.024 390.78 220.844 390.78ZM220.844 392.22C218.964 392.22 217.604 393.36 217.604 395.04C217.604 396.72 218.964 397.88 220.844 397.88C222.704 397.88 224.064 396.72 224.064 395.04C224.064 393.36 222.704 392.22 220.844 392.22ZM228.044 389.46H229.704V407.58H228.044V389.46ZM215.304 403.62L215.064 402.24C218.364 402.24 222.924 402.22 226.864 401.6L227.004 402.82C222.944 403.6 218.524 403.62 215.304 403.62ZM249.055 394.1H250.335V395.04C250.335 398.62 248.835 402.24 246.195 403.82L245.195 402.56C247.655 401.12 249.055 397.98 249.055 395.04V394.1ZM249.355 394.1H250.635V395.04C250.635 397.9 252.095 400.86 254.515 402.18L253.575 403.42C250.915 401.94 249.355 398.52 249.355 395.04V394.1ZM245.655 392.84H254.035V394.2H245.655V392.84ZM249.055 390.12H250.655V393.86H249.055V390.12ZM259.195 389.48H260.775V407.56H259.195V389.48ZM256.335 396.76H259.815V398.16H256.335V396.76ZM255.255 389.86H256.815V406.66H255.255V389.86ZM264.813 398.06H266.273C270.173 398.06 272.313 397.98 274.853 397.56L275.033 398.88C272.413 399.34 270.213 399.4 266.273 399.4H264.813V398.06ZM264.813 390.8H273.413V392.14H266.453V398.74H264.813V390.8ZM265.913 394.38H272.913V395.7H265.913V394.38ZM276.913 389.5H278.593V400.68H276.913V389.5ZM272.613 400.94C276.373 400.94 278.673 402.14 278.673 404.22C278.673 406.32 276.373 407.52 272.613 407.52C268.833 407.52 266.533 406.32 266.533 404.22C266.533 402.14 268.833 400.94 272.613 400.94ZM272.613 402.26C269.853 402.26 268.193 402.98 268.193 404.22C268.193 405.5 269.853 406.22 272.613 406.22C275.353 406.22 277.013 405.5 277.013 404.22C277.013 402.98 275.353 402.26 272.613 402.26ZM290.432 400.82C294.112 400.82 296.372 402.06 296.372 404.18C296.372 406.3 294.112 407.54 290.432 407.54C286.752 407.54 284.492 406.3 284.492 404.18C284.492 402.06 286.752 400.82 290.432 400.82ZM290.432 402.16C287.752 402.16 286.112 402.9 286.112 404.18C286.112 405.48 287.752 406.22 290.432 406.22C293.112 406.22 294.752 405.48 294.752 404.18C294.752 402.9 293.112 402.16 290.432 402.16ZM294.532 389.48H296.192V400.34H294.532V389.48ZM295.732 394.02H298.872V395.42H295.732V394.02ZM282.912 390.62H284.552V393.32H289.652V390.62H291.272V398.96H282.912V390.62ZM284.552 394.64V397.62H289.652V394.64H284.552ZM308.73 389.78C312.71 389.78 315.09 390.9 315.09 392.92C315.09 394.94 312.71 396.06 308.73 396.06C304.73 396.06 302.37 394.94 302.37 392.92C302.37 390.9 304.73 389.78 308.73 389.78ZM308.73 391.04C305.77 391.04 304.07 391.72 304.07 392.92C304.07 394.12 305.77 394.8 308.73 394.8C311.67 394.8 313.37 394.12 313.37 392.92C313.37 391.72 311.67 391.04 308.73 391.04ZM300.55 397.26H316.89V398.6H300.55V397.26ZM302.53 400.14H314.81V404.22H304.21V406.42H302.57V403.02H313.17V401.42H302.53V400.14ZM302.57 406.06H315.35V407.36H302.57V406.06ZM338.481 390.64H340.221C340.221 395.2 337.021 398.46 331.821 399.92L331.141 398.62C335.721 397.32 338.481 394.7 338.481 391.34V390.64ZM332.081 390.64H339.601V391.98H332.081V390.64ZM344.161 389.48H345.821V399.8H344.161V389.48ZM340.241 394.12H344.481V395.5H340.241V394.12ZM334.161 400.56H345.821V407.32H334.161V400.56ZM344.201 401.9H335.801V405.96H344.201V401.9ZM353.139 390.56H354.459V392.98C354.459 395.7 352.919 398.56 350.259 399.78L349.359 398.48C351.719 397.42 353.139 395.04 353.139 392.98V390.56ZM353.399 390.56H354.719V392.98C354.719 395.04 356.059 397.1 358.379 398.04L357.499 399.32C354.879 398.22 353.399 395.68 353.399 392.98V390.56ZM362.999 389.5H364.579V400.42H362.999V389.5ZM360.079 394.18H363.499V395.56H360.079V394.18ZM359.119 389.8H360.699V400.32H359.119V389.8ZM352.459 401.4H364.579V407.56H362.939V402.76H352.459V401.4ZM380.118 389.42H381.778V399.4H380.118V389.42ZM381.078 393.76H384.458V395.16H381.078V393.76ZM370.298 400.32H381.778V404.36H371.978V406.56H370.338V403.16H380.158V401.58H370.298V400.32ZM370.338 406.08H382.438V407.36H370.338V406.08ZM367.798 391.1H378.478V392.4H367.798V391.1ZM373.138 393.2C375.738 393.2 377.458 394.34 377.458 396.18C377.458 398 375.738 399.12 373.138 399.12C370.498 399.12 368.798 398 368.798 396.18C368.798 394.34 370.498 393.2 373.138 393.2ZM373.138 394.42C371.458 394.42 370.378 395.1 370.378 396.18C370.378 397.24 371.458 397.92 373.138 397.92C374.798 397.92 375.878 397.24 375.878 396.18C375.878 395.1 374.798 394.42 373.138 394.42ZM372.298 389.28H373.958V392H372.298V389.28ZM405.448 390.12H406.908V391.12C406.908 394.58 403.388 397.06 399.628 397.7L398.968 396.36C402.268 395.86 405.448 393.7 405.448 391.12V390.12ZM405.748 390.12H407.188V391.12C407.188 393.64 410.408 395.86 413.668 396.36L413.008 397.7C409.288 397.06 405.748 394.54 405.748 391.12V390.12ZM405.448 400.68H407.088V407.56H405.448V400.68ZM398.148 399.66H414.488V401.04H398.148V399.66ZM433.039 400.6H434.319V401.58C434.319 403.94 432.839 406.32 430.239 407.32L429.399 406.08C431.679 405.26 433.039 403.32 433.039 401.58V400.6ZM433.399 400.6H434.639V401.58C434.639 403.4 435.719 405.34 437.879 406.22L437.179 407.48C434.579 406.46 433.399 403.98 433.399 401.58V400.6ZM439.719 400.6H440.959V401.58C440.959 403.7 439.759 406.38 437.179 407.48L436.479 406.22C438.619 405.24 439.719 403.14 439.719 401.58V400.6ZM440.059 400.6H441.339V401.58C441.339 403.44 442.679 405.3 444.979 406.08L444.139 407.32C441.499 406.36 440.059 404.08 440.059 401.58V400.6ZM441.679 389.5H443.359V399.82H441.679V389.5ZM433.659 390.54C436.399 390.54 438.359 392.26 438.359 394.76C438.359 397.26 436.399 398.96 433.659 398.96C430.919 398.96 428.939 397.26 428.939 394.76C428.939 392.26 430.919 390.54 433.659 390.54ZM433.659 391.92C431.859 391.92 430.559 393.08 430.559 394.76C430.559 396.44 431.859 397.58 433.659 397.58C435.459 397.58 436.759 396.44 436.759 394.76C436.759 393.08 435.459 391.92 433.659 391.92ZM451.758 390.86C454.378 390.86 456.258 393.32 456.258 397.16C456.258 401.02 454.378 403.48 451.758 403.48C449.118 403.48 447.257 401.02 447.257 397.16C447.257 393.32 449.118 390.86 451.758 390.86ZM451.758 392.36C450.018 392.36 448.838 394.24 448.838 397.16C448.838 400.1 450.018 402.02 451.758 402.02C453.498 402.02 454.678 400.1 454.678 397.16C454.678 394.24 453.498 392.36 451.758 392.36ZM460.178 389.46H461.818V407.58H460.178V389.46ZM455.718 396.36H460.898V397.72H455.718V396.36ZM469.336 398.78H470.976V404.2H469.336V398.78ZM476.016 398.78H477.676V404.2H476.016V398.78ZM465.336 403.88H481.716V405.26H465.336V403.88ZM473.496 390.62C477.316 390.62 480.056 392.44 480.056 395.28C480.056 398.1 477.316 399.92 473.496 399.92C469.656 399.92 466.916 398.1 466.916 395.28C466.916 392.44 469.656 390.62 473.496 390.62ZM473.496 391.94C470.596 391.94 468.516 393.26 468.516 395.28C468.516 397.28 470.596 398.6 473.496 398.6C476.396 398.6 478.456 397.28 478.456 395.28C478.456 393.26 476.396 391.94 473.496 391.94ZM488.734 406.18C488.188 406.18 487.801 406.067 487.574 405.84C487.361 405.613 487.254 405.327 487.254 404.98V404.62C487.254 404.273 487.361 403.987 487.574 403.76C487.801 403.533 488.188 403.42 488.734 403.42C489.281 403.42 489.661 403.533 489.874 403.76C490.101 403.987 490.214 404.273 490.214 404.62V404.98C490.214 405.327 490.101 405.613 489.874 405.84C489.661 406.067 489.281 406.18 488.734 406.18Z" fill="black"/>
<rect x="30" y="455" width="60" height="60" rx="30" fill="white"/>
<path d="M66 490H69C69.5 490 70 489.5 70 489V478.5C70 478 69.5 477.5 69 477.5H66C65.5 477.5 65 478 65 478.5V489C65 489.5 65.5 490 66 490ZM73.5 490H76.5C77 490 77.5 489.5 77.5 489V471C77.5 470.5 77 470 76.5 470H73.5C73 470 72.5 470.5 72.5 471V489C72.5 489.5 73 490 73.5 490ZM51 490H54C54.5 490 55 489.5 55 489V483.5C55 483 54.5 482.5 54 482.5H51C50.5 482.5 50 483 50 483.5V489C50 489.5 50.5 490 51 490ZM58.5 490H61.5C62 490 62.5 489.5 62.5 489V473.5C62.5 473 62 472.5 61.5 472.5H58.5C58 472.5 57.5 473 57.5 473.5V489C57.5 489.5 58 490 58.5 490ZM78.75 495H45V471.25C45 470.559 44.4406 470 43.75 470H41.25C40.5594 470 40 470.559 40 471.25V497.5C40 498.88 41.1195 500 42.5 500H78.75C79.4406 500 80 499.441 80 498.75V496.25C80 495.559 79.4406 495 78.75 495Z" fill="#BF30E2"/>
<path d="M123.22 463.46H124.9V481.56H123.22V463.46ZM124.44 470.8H127.78V472.18H124.44V470.8ZM118.6 465.42H120.22C120.22 470.56 117.86 475.2 112.02 478.14L111.1 476.86C116.1 474.32 118.6 470.46 118.6 465.68V465.42ZM111.94 465.42H119.46V466.78H111.94V465.42ZM133.838 465.42H135.198V466.88C135.198 470.2 133.198 472.98 130.158 474.08L129.318 472.76C132.038 471.8 133.838 469.46 133.838 466.88V465.42ZM134.138 465.42H135.498V466.86C135.498 469.22 137.218 471.34 139.878 472.22L139.078 473.52C136.058 472.52 134.138 469.94 134.138 466.86V465.42ZM129.818 464.82H139.478V466.18H129.818V464.82ZM141.758 463.48H143.418V474.38H141.758V463.48ZM142.958 468.06H146.098V469.46H142.958V468.06ZM137.658 474.86C141.338 474.86 143.598 476.08 143.598 478.18C143.598 480.3 141.338 481.52 137.658 481.52C133.978 481.52 131.718 480.3 131.718 478.18C131.718 476.08 133.978 474.86 137.658 474.86ZM137.658 476.2C134.978 476.2 133.338 476.92 133.338 478.18C133.338 479.46 134.978 480.22 137.658 480.22C140.338 480.22 141.978 479.46 141.978 478.18C141.978 476.92 140.338 476.2 137.658 476.2ZM172.149 463.48H173.809V472.7H172.149V463.48ZM173.089 467.54H176.489V468.92H173.089V467.54ZM160.529 464.66H168.829V472.04H160.529V464.66ZM167.209 466H162.149V470.72H167.209V466ZM161.669 479.72H162.529C163.609 479.72 165.349 479.62 166.889 479.1L167.169 480.44C165.429 481 163.769 481.08 162.529 481.08H161.669V479.72ZM161.669 474.36H163.289V480.08H161.669V474.36ZM166.509 474.54H175.589V475.78H166.509V474.54ZM171.069 476.44C173.029 476.44 174.409 477.44 174.409 478.98C174.409 480.56 173.029 481.54 171.069 481.54C169.089 481.54 167.709 480.56 167.709 478.98C167.709 477.44 169.089 476.44 171.069 476.44ZM171.069 477.62C169.949 477.62 169.189 478.16 169.189 478.98C169.189 479.82 169.949 480.36 171.069 480.36C172.149 480.36 172.929 479.82 172.929 478.98C172.929 478.16 172.149 477.62 171.069 477.62ZM170.249 472.96H171.869V475.42H170.249V472.96ZM191.308 463.46H192.968V481.58H191.308V463.46ZM183.428 464.86C186.108 464.86 188.028 467.32 188.028 471.16C188.028 475.02 186.108 477.48 183.428 477.48C180.768 477.48 178.848 475.02 178.848 471.16C178.848 467.32 180.768 464.86 183.428 464.86ZM183.428 466.36C181.668 466.36 180.428 468.24 180.428 471.16C180.428 474.1 181.668 476.02 183.428 476.02C185.208 476.02 186.428 474.1 186.428 471.16C186.428 468.24 185.208 466.36 183.428 466.36ZM217.578 468.5H222.538V469.84H217.578V468.5ZM221.778 463.5H223.438V476.8H221.778V463.5ZM211.898 479.8H223.938V481.16H211.898V479.8ZM211.898 475.46H213.558V480.38H211.898V475.46ZM213.498 464.64C216.158 464.64 218.158 466.5 218.158 469.12C218.158 471.74 216.158 473.6 213.498 473.6C210.838 473.6 208.838 471.74 208.838 469.12C208.838 466.5 210.838 464.64 213.498 464.64ZM213.498 466.1C211.738 466.1 210.438 467.34 210.438 469.12C210.438 470.9 211.738 472.14 213.498 472.14C215.238 472.14 216.558 470.9 216.558 469.12C216.558 467.34 215.238 466.1 213.498 466.1ZM229.097 473.82H230.737V476.2H239.577V473.82H241.237V481.32H229.097V473.82ZM230.737 477.52V479.98H239.577V477.52H230.737ZM229.057 464.3H240.697V465.66H229.057V464.3ZM226.977 470.84H243.357V472.22H226.977V470.84ZM239.617 464.3H241.237V465.62C241.237 467.1 241.237 468.8 240.677 471.22L239.017 471.24C239.617 468.82 239.617 467.1 239.617 465.62V464.3ZM247.055 469.38H255.775V470.74H247.055V469.38ZM250.535 470.2H252.195V473.82H250.535V470.2ZM247.055 464.66H255.655V466.02H248.715V469.98H247.055V464.66ZM258.495 463.48H260.155V477H258.495V463.48ZM248.475 479.8H260.755V481.16H248.475V479.8ZM248.475 476.12H250.115V480.38H248.475V476.12ZM245.675 474.72L245.455 473.36C248.935 473.36 253.335 473.28 257.055 472.84L257.155 474.06C253.335 474.62 249.055 474.72 245.675 474.72ZM288.126 463.46H289.786V476.56H288.126V463.46ZM289.286 468.84H292.466V470.22H289.286V468.84ZM276.586 472H277.986C281.706 472 283.806 471.9 286.226 471.4L286.406 472.74C283.926 473.26 281.786 473.38 277.986 473.38H276.586V472ZM276.586 465.02H284.566V466.4H278.226V472.74H276.586V465.02ZM278.526 479.8H290.606V481.16H278.526V479.8ZM278.526 475.26H280.186V480.42H278.526V475.26ZM298.984 464.86C301.604 464.86 303.484 467.32 303.484 471.16C303.484 475.02 301.604 477.48 298.984 477.48C296.344 477.48 294.484 475.02 294.484 471.16C294.484 467.32 296.344 464.86 298.984 464.86ZM298.984 466.36C297.244 466.36 296.064 468.24 296.064 471.16C296.064 474.1 297.244 476.02 298.984 476.02C300.724 476.02 301.904 474.1 301.904 471.16C301.904 468.24 300.724 466.36 298.984 466.36ZM307.404 463.46H309.044V481.58H307.404V463.46ZM302.944 470.36H308.124V471.72H302.944V470.36ZM312.563 471.02H328.903V472.38H312.563V471.02ZM314.723 468.22H326.963V469.56H314.723V468.22ZM314.723 464.06H326.763V465.42H316.363V469.3H314.723V464.06ZM314.523 473.94H326.803V478.2H316.203V480.48H314.563V476.96H325.163V475.24H314.523V473.94ZM314.563 480.04H327.343V481.36H314.563V480.04ZM344.081 463.46H345.741V481.58H344.081V463.46ZM336.201 464.86C338.881 464.86 340.801 467.32 340.801 471.16C340.801 475.02 338.881 477.48 336.201 477.48C333.541 477.48 331.621 475.02 331.621 471.16C331.621 467.32 333.541 464.86 336.201 464.86ZM336.201 466.36C334.441 466.36 333.201 468.24 333.201 471.16C333.201 474.1 334.441 476.02 336.201 476.02C337.981 476.02 339.201 474.1 339.201 471.16C339.201 468.24 337.981 466.36 336.201 466.36ZM124.14 489.48H125.8V498.84H124.14V489.48ZM114.12 499.76H125.82V504.1H115.78V506.58H114.16V502.86H124.18V501.06H114.12V499.76ZM114.16 506.04H126.42V507.36H114.16V506.04ZM115.7 490H117.08V491.38C117.08 494.72 115 497.56 111.94 498.68L111.12 497.36C113.84 496.4 115.7 494 115.7 491.38V490ZM116 490H117.36V491.38C117.36 493.88 119.26 496.14 121.94 497.02L121.12 498.32C118.08 497.28 116 494.62 116 491.38V490ZM134.158 491.04H135.518V494.28C135.518 498.44 133.278 502.3 130.318 503.8L129.298 502.44C131.978 501.16 134.158 497.7 134.158 494.28V491.04ZM134.438 491.04H135.798V494.28C135.798 497.58 137.958 500.9 140.638 502.14L139.638 503.46C136.698 502.02 134.438 498.3 134.438 494.28V491.04ZM142.518 489.46H144.178V507.58H142.518V489.46ZM160.157 489.48H161.817V502.7H160.157V489.48ZM161.297 494.96H164.497V496.34H161.297V494.96ZM155.217 490.88H156.977C156.977 495.56 153.697 498.98 148.517 500.64L147.797 499.28C152.357 497.88 155.217 495.08 155.217 491.6V490.88ZM148.537 490.88H156.057V492.24H148.537V490.88ZM150.537 505.8H162.617V507.16H150.537V505.8ZM150.537 501.36H152.197V506.34H150.537V501.36ZM191.828 489.48H193.408V500.64H191.828V489.48ZM188.928 494.3H192.328V495.66H188.928V494.3ZM187.848 489.82H189.408V500H187.848V489.82ZM179.008 498.24H180.168C182.708 498.24 184.588 498.16 186.808 497.72L186.968 499.04C184.688 499.5 182.788 499.58 180.168 499.58H179.008V498.24ZM178.968 490.84H185.768V495.72H180.608V499.24H179.008V494.46H184.168V492.18H178.968V490.84ZM187.467 501C191.188 501 193.508 502.2 193.508 504.26C193.508 506.32 191.188 507.52 187.467 507.52C183.728 507.52 181.448 506.32 181.448 504.26C181.448 502.2 183.728 501 187.467 501ZM187.467 502.28C184.748 502.28 183.067 503.02 183.067 504.26C183.067 505.5 184.748 506.22 187.467 506.22C190.188 506.22 191.848 505.5 191.848 504.26C191.848 503.02 190.188 502.28 187.467 502.28ZM204.386 490.72H206.106C206.106 495.38 203.506 498.74 197.726 500.44L197.086 499.1C202.226 497.62 204.386 494.88 204.386 491.36V490.72ZM197.866 490.72H205.286V492.06H197.866V490.72ZM204.166 494.04V495.22L197.246 495.74L196.966 494.38L204.166 494.04ZM209.726 489.5H211.406V500.36H209.726V489.5ZM205.426 500.62C209.166 500.62 211.506 501.9 211.506 504.08C211.506 506.26 209.166 507.54 205.426 507.54C201.686 507.54 199.366 506.26 199.366 504.08C199.366 501.9 201.686 500.62 205.426 500.62ZM205.426 501.94C202.686 501.94 201.006 502.72 201.006 504.08C201.006 505.42 202.686 506.22 205.426 506.22C208.166 506.22 209.846 505.42 209.846 504.08C209.846 502.72 208.166 501.94 205.426 501.94ZM223.144 490.62C226.904 490.62 229.704 492.62 229.704 495.62C229.704 498.64 226.904 500.62 223.144 500.62C219.384 500.62 216.564 498.64 216.564 495.62C216.564 492.62 219.384 490.62 223.144 490.62ZM223.144 491.98C220.284 491.98 218.164 493.44 218.164 495.62C218.164 497.78 220.284 499.26 223.144 499.26C226.004 499.26 228.124 497.78 228.124 495.62C228.124 493.44 226.004 491.98 223.144 491.98ZM214.984 503.78H231.364V505.18H214.984V503.78ZM233.383 503.96H249.763V505.34H233.383V503.96ZM240.703 500.08H242.363V504.54H240.703V500.08ZM235.363 490.82H247.743V496.3H237.063V499.92H235.423V494.96H246.103V492.16H235.363V490.82ZM235.423 499.22H248.163V500.58H235.423V499.22ZM263.773 503.88H280.153V505.26H263.773V503.88ZM271.093 499.56H272.753V504.28H271.093V499.56ZM265.693 490.76H267.333V493.98H276.553V490.76H278.193V500H265.693V490.76ZM267.333 495.32V498.64H276.553V495.32H267.333ZM290.312 493.5H295.772V494.88H290.312V493.5ZM290.312 499.22H295.772V500.6H290.312V499.22ZM286.992 490.86C289.612 490.86 291.492 493.32 291.492 497.16C291.492 501.02 289.612 503.48 286.992 503.48C284.352 503.48 282.492 501.02 282.492 497.16C282.492 493.32 284.352 490.86 286.992 490.86ZM286.992 492.36C285.252 492.36 284.052 494.24 284.052 497.16C284.052 500.1 285.252 502.02 286.992 502.02C288.732 502.02 289.932 500.1 289.932 497.16C289.932 494.24 288.732 492.36 286.992 492.36ZM295.412 489.46H297.052V507.58H295.412V489.46ZM304.57 498.78H306.21V504.2H304.57V498.78ZM311.25 498.78H312.91V504.2H311.25V498.78ZM300.57 503.88H316.95V505.26H300.57V503.88ZM308.73 490.62C312.55 490.62 315.29 492.44 315.29 495.28C315.29 498.1 312.55 499.92 308.73 499.92C304.89 499.92 302.15 498.1 302.15 495.28C302.15 492.44 304.89 490.62 308.73 490.62ZM308.73 491.94C305.83 491.94 303.75 493.26 303.75 495.28C303.75 497.28 305.83 498.6 308.73 498.6C311.63 498.6 313.69 497.28 313.69 495.28C313.69 493.26 311.63 491.94 308.73 491.94ZM323.969 506.18C323.422 506.18 323.035 506.067 322.809 505.84C322.595 505.613 322.489 505.327 322.489 504.98V504.62C322.489 504.273 322.595 503.987 322.809 503.76C323.035 503.533 323.422 503.42 323.969 503.42C324.515 503.42 324.895 503.533 325.109 503.76C325.335 503.987 325.449 504.273 325.449 504.62V504.98C325.449 505.327 325.335 505.613 325.109 505.84C324.895 506.067 324.515 506.18 323.969 506.18Z" fill="black"/>
<rect x="30" y="556" width="60" height="60" rx="30" fill="white"/>
<path d="M46 574H74V596H78V572.5C78 571.121 76.8787 570 75.5 570H44.5C43.1213 570 42 571.121 42 572.5V596H46V574ZM79 598H70V594H58V598H41C40.4475 598 40 598.448 40 599V601C40 601.552 40.4475 602 41 602H79C79.5525 602 80 601.552 80 601V599C80 598.448 79.5525 598 79 598Z" fill="#BF30E2"/>
<path d="M115.18 570.66H116.88V577.56H115.18V570.66ZM121.4 570.66H123.1V577.56H121.4V570.66ZM110.98 569.76H127.38V571.14H110.98V569.76ZM119.14 560.2C122.92 560.2 125.46 561.72 125.46 564.14C125.46 566.54 122.92 568.08 119.14 568.08C115.38 568.08 112.82 566.54 112.82 564.14C112.82 561.72 115.38 560.2 119.14 560.2ZM119.14 561.54C116.38 561.54 114.5 562.56 114.5 564.14C114.5 565.72 116.38 566.74 119.14 566.74C121.9 566.74 123.76 565.72 123.76 564.14C123.76 562.56 121.9 561.54 119.14 561.54ZM142.618 559.46H144.258V577.58H142.618V559.46ZM138.718 566.06H143.098V567.42H138.718V566.06ZM133.978 562.06H135.318V564.76C135.318 568.66 133.078 572.52 130.218 574L129.238 572.68C131.838 571.4 133.978 567.98 133.978 564.76V562.06ZM134.318 562.06H135.638V564.76C135.638 567.78 137.738 571.08 140.358 572.32L139.378 573.62C136.518 572.2 134.318 568.48 134.318 564.76V562.06ZM129.898 561.32H139.738V562.7H129.898V561.32ZM147.797 567.02H164.137V568.38H147.797V567.02ZM149.957 564.22H162.197V565.56H149.957V564.22ZM149.957 560.06H161.997V561.42H151.597V565.3H149.957V560.06ZM149.757 569.94H162.037V574.2H151.437V576.48H149.797V572.96H160.397V571.24H149.757V569.94ZM149.797 576.04H162.577V577.36H149.797V576.04ZM179.355 559.48H180.995V577.56H179.355V559.48ZM170.215 561.42H171.755C171.755 565.74 170.735 570 167.495 573.46L166.175 572.48C169.115 569.44 170.215 565.68 170.215 561.6V561.42ZM166.835 561.42H170.835V562.8H166.835V561.42ZM175.255 561.42H176.795C176.795 565.74 176.115 570.76 172.855 574.66L171.475 573.76C174.495 570.22 175.255 565.74 175.255 561.58V561.42ZM172.355 561.42H175.835V562.8H172.355V561.42ZM197.754 559.46H199.414V577.58H197.754V559.46ZM185.634 571.84H187.134C190.154 571.84 192.854 571.72 196.054 571.2L196.234 572.56C192.954 573.1 190.234 573.22 187.134 573.22H185.634V571.84ZM185.594 561.16H193.954V567.62H187.294V572.36H185.634V566.26H192.274V562.52H185.594V561.16ZM219.444 562.06H220.764V565C220.764 568.76 218.464 572.64 215.644 574.08L214.684 572.76C217.264 571.5 219.444 568.06 219.444 565V562.06ZM219.744 562.06H221.064V565C221.064 567.86 223.104 571.08 225.724 572.32L224.784 573.64C221.924 572.22 219.744 568.58 219.744 565V562.06ZM215.324 561.32H225.064V562.72H215.324V561.32ZM227.204 559.48H228.884V577.56H227.204V559.48ZM228.484 566.78H231.844V568.18H228.484V566.78ZM237.563 570.66H239.263V577.56H237.563V570.66ZM243.783 570.66H245.483V577.56H243.783V570.66ZM233.363 569.76H249.763V571.14H233.363V569.76ZM241.523 560.2C245.303 560.2 247.843 561.72 247.843 564.14C247.843 566.54 245.303 568.08 241.523 568.08C237.763 568.08 235.203 566.54 235.203 564.14C235.203 561.72 237.763 560.2 241.523 560.2ZM241.523 561.54C238.763 561.54 236.883 562.56 236.883 564.14C236.883 565.72 238.763 566.74 241.523 566.74C244.283 566.74 246.143 565.72 246.143 564.14C246.143 562.56 244.283 561.54 241.523 561.54ZM251.761 568.72H268.161V570.08H251.761V568.72ZM259.121 566.54H260.781V569.4H259.121V566.54ZM253.961 570.98H255.601V572.72H264.421V570.98H266.061V577.32H253.961V570.98ZM255.601 574.02V576H264.421V574.02H255.601ZM253.841 559.86H266.041V564.02H255.521V566.4H253.881V562.78H264.421V561.14H253.841V559.86ZM253.881 565.72H266.441V567.02H253.881V565.72ZM283.94 559.48H285.54V577.56H283.94V559.48ZM276.1 566.86H280.66V568.2H276.1V566.86ZM280.18 559.94H281.74V576.64H280.18V559.94ZM276.32 561.76H277.92C277.92 566.5 276.02 570.76 271.14 573.66L270.16 572.48C274.42 569.92 276.32 566.32 276.32 562.06V561.76ZM270.96 561.76H276.94V563.12H270.96V561.76ZM300.57 573.84H316.95V575.22H300.57V573.84ZM307.85 569.46H309.49V574.3H307.85V569.46ZM307.81 560.68H309.25V562.08C309.25 565.94 305.55 568.92 301.91 569.68L301.21 568.3C304.39 567.72 307.81 565.06 307.81 562.08V560.68ZM308.11 560.68H309.55V562.08C309.55 565.08 312.99 567.72 316.17 568.3L315.45 569.68C311.81 568.92 308.11 565.94 308.11 562.08V560.68ZM318.949 569.06H335.289V570.4H318.949V569.06ZM326.289 566.72H327.929V569.62H326.289V566.72ZM321.109 565.98H333.369V567.28H321.109V565.98ZM321.109 560H333.289V561.3H322.749V566.68H321.109V560ZM322.269 562.96H332.809V564.24H322.269V562.96ZM327.109 571.74C331.049 571.74 333.309 572.74 333.309 574.64C333.309 576.52 331.049 577.52 327.109 577.52C323.169 577.52 320.909 576.52 320.909 574.64C320.909 572.74 323.169 571.74 327.109 571.74ZM327.109 573C324.209 573 322.589 573.58 322.589 574.64C322.589 575.72 324.209 576.28 327.109 576.28C330.009 576.28 331.629 575.72 331.629 574.64C331.629 573.58 330.009 573 327.109 573ZM349.727 559.42H351.387V569.4H349.727V559.42ZM350.687 563.76H354.067V565.16H350.687V563.76ZM339.907 570.32H351.387V574.36H341.587V576.56H339.947V573.16H349.767V571.58H339.907V570.32ZM339.947 576.08H352.047V577.36H339.947V576.08ZM337.407 561.1H348.087V562.4H337.407V561.1ZM342.747 563.2C345.347 563.2 347.067 564.34 347.067 566.18C347.067 568 345.347 569.12 342.747 569.12C340.107 569.12 338.407 568 338.407 566.18C338.407 564.34 340.107 563.2 342.747 563.2ZM342.747 564.42C341.067 564.42 339.987 565.1 339.987 566.18C339.987 567.24 341.067 567.92 342.747 567.92C344.407 567.92 345.487 567.24 345.487 566.18C345.487 565.1 344.407 564.42 342.747 564.42ZM341.907 559.28H343.567V562H341.907V559.28ZM375.058 560.12H376.518V561.12C376.518 564.58 372.998 567.06 369.238 567.7L368.578 566.36C371.878 565.86 375.058 563.7 375.058 561.12V560.12ZM375.358 560.12H376.798V561.12C376.798 563.64 380.018 565.86 383.278 566.36L382.618 567.7C378.898 567.06 375.358 564.54 375.358 561.12V560.12ZM375.058 570.68H376.698V577.56H375.058V570.68ZM367.758 569.66H384.098V571.04H367.758V569.66ZM402.648 570.6H403.928V571.58C403.928 573.94 402.448 576.32 399.848 577.32L399.008 576.08C401.288 575.26 402.648 573.32 402.648 571.58V570.6ZM403.008 570.6H404.248V571.58C404.248 573.4 405.328 575.34 407.488 576.22L406.788 577.48C404.188 576.46 403.008 573.98 403.008 571.58V570.6ZM409.328 570.6H410.568V571.58C410.568 573.7 409.368 576.38 406.788 577.48L406.088 576.22C408.228 575.24 409.328 573.14 409.328 571.58V570.6ZM409.668 570.6H410.948V571.58C410.948 573.44 412.288 575.3 414.588 576.08L413.748 577.32C411.108 576.36 409.668 574.08 409.668 571.58V570.6ZM411.288 559.5H412.968V569.82H411.288V559.5ZM403.268 560.54C406.008 560.54 407.968 562.26 407.968 564.76C407.968 567.26 406.008 568.96 403.268 568.96C400.528 568.96 398.548 567.26 398.548 564.76C398.548 562.26 400.528 560.54 403.268 560.54ZM403.268 561.92C401.468 561.92 400.168 563.08 400.168 564.76C400.168 566.44 401.468 567.58 403.268 567.58C405.068 567.58 406.368 566.44 406.368 564.76C406.368 563.08 405.068 561.92 403.268 561.92ZM418.747 564.9H431.027V566.26H418.747V564.9ZM416.527 568.68H432.927V570.04H416.527V568.68ZM418.747 560.14H420.387V565.58H418.747V560.14ZM418.627 575.76H431.127V577.12H418.627V575.76ZM418.627 571.84H420.267V576.12H418.627V571.84ZM124.76 595.48H126.36V613.56H124.76V595.48ZM116.92 602.86H121.48V604.2H116.92V602.86ZM121 595.94H122.56V612.64H121V595.94ZM117.14 597.76H118.74C118.74 602.5 116.84 606.76 111.96 609.66L110.98 608.48C115.24 605.92 117.14 602.32 117.14 598.06V597.76ZM111.78 597.76H117.76V599.12H111.78V597.76ZM134.158 597.04H135.518V600.28C135.518 604.44 133.278 608.3 130.318 609.8L129.298 608.44C131.978 607.16 134.158 603.7 134.158 600.28V597.04ZM134.438 597.04H135.798V600.28C135.798 603.58 137.958 606.9 140.638 608.14L139.638 609.46C136.698 608.02 134.438 604.3 134.438 600.28V597.04ZM142.518 595.46H144.178V613.58H142.518V595.46ZM148.337 597.16H157.997V598.52H148.337V597.16ZM148.037 606.12L147.837 604.72C150.997 604.7 155.297 604.66 158.837 604.22L158.957 605.46C155.357 606.02 151.117 606.12 148.037 606.12ZM150.117 598.18H151.717V605H150.117V598.18ZM154.597 598.18H156.197V605H154.597V598.18ZM160.157 595.5H161.817V608.82H160.157V595.5ZM161.297 600.98H164.497V602.38H161.297V600.98ZM150.557 611.8H162.637V613.16H150.557V611.8ZM150.557 607.54H152.217V612.16H150.557V607.54ZM191.348 595.48H193.008V613.56H191.348V595.48ZM186.048 597.42H187.688C187.688 602.66 185.328 607.24 179.288 610.2L178.408 608.86C183.628 606.34 186.048 602.5 186.048 597.7V597.42ZM179.228 597.42H186.768V598.78H179.228V597.42ZM198.806 600.5H211.066V601.86H198.806V600.5ZM198.806 595.84H200.446V601.1H198.806V595.84ZM196.586 603.96H212.926V605.3H196.586V603.96ZM204.726 606.92C208.586 606.92 210.926 608.1 210.926 610.22C210.926 612.3 208.586 613.5 204.726 613.5C200.866 613.5 198.526 612.3 198.526 610.22C198.526 608.1 200.866 606.92 204.726 606.92ZM204.726 608.22C201.906 608.22 200.206 608.94 200.206 610.22C200.206 611.46 201.906 612.18 204.726 612.18C207.566 612.18 209.246 611.46 209.246 610.22C209.246 608.94 207.566 608.22 204.726 608.22ZM228.104 595.46H229.764V613.58H228.104V595.46ZM220.224 596.86C222.904 596.86 224.824 599.32 224.824 603.16C224.824 607.02 222.904 609.48 220.224 609.48C217.564 609.48 215.644 607.02 215.644 603.16C215.644 599.32 217.564 596.86 220.224 596.86ZM220.224 598.36C218.464 598.36 217.224 600.24 217.224 603.16C217.224 606.1 218.464 608.02 220.224 608.02C222.004 608.02 223.224 606.1 223.224 603.16C223.224 600.24 222.004 598.36 220.224 598.36ZM249.875 606.6H251.155V607.58C251.155 609.94 249.675 612.32 247.075 613.32L246.235 612.08C248.515 611.26 249.875 609.32 249.875 607.58V606.6ZM250.235 606.6H251.475V607.58C251.475 609.4 252.555 611.34 254.715 612.22L254.015 613.48C251.415 612.46 250.235 609.98 250.235 607.58V606.6ZM256.555 606.6H257.795V607.58C257.795 609.7 256.595 612.38 254.015 613.48L253.315 612.22C255.455 611.24 256.555 609.14 256.555 607.58V606.6ZM256.895 606.6H258.175V607.58C258.175 609.44 259.515 611.3 261.815 612.08L260.975 613.32C258.335 612.36 256.895 610.08 256.895 607.58V606.6ZM258.515 595.5H260.195V605.82H258.515V595.5ZM250.495 596.54C253.235 596.54 255.195 598.26 255.195 600.76C255.195 603.26 253.235 604.96 250.495 604.96C247.755 604.96 245.775 603.26 245.775 600.76C245.775 598.26 247.755 596.54 250.495 596.54ZM250.495 597.92C248.695 597.92 247.395 599.08 247.395 600.76C247.395 602.44 248.695 603.58 250.495 603.58C252.295 603.58 253.595 602.44 253.595 600.76C253.595 599.08 252.295 597.92 250.495 597.92ZM268.593 596.86C271.213 596.86 273.093 599.32 273.093 603.16C273.093 607.02 271.213 609.48 268.593 609.48C265.953 609.48 264.093 607.02 264.093 603.16C264.093 599.32 265.953 596.86 268.593 596.86ZM268.593 598.36C266.853 598.36 265.673 600.24 265.673 603.16C265.673 606.1 266.853 608.02 268.593 608.02C270.333 608.02 271.513 606.1 271.513 603.16C271.513 600.24 270.333 598.36 268.593 598.36ZM277.013 595.46H278.653V613.58H277.013V595.46ZM272.553 602.36H277.733V603.72H272.553V602.36ZM286.172 604.78H287.812V610.2H286.172V604.78ZM292.852 604.78H294.512V610.2H292.852V604.78ZM282.172 609.88H298.552V611.26H282.172V609.88ZM290.332 596.62C294.152 596.62 296.892 598.44 296.892 601.28C296.892 604.1 294.152 605.92 290.332 605.92C286.492 605.92 283.752 604.1 283.752 601.28C283.752 598.44 286.492 596.62 290.332 596.62ZM290.332 597.94C287.432 597.94 285.352 599.26 285.352 601.28C285.352 603.28 287.432 604.6 290.332 604.6C293.232 604.6 295.292 603.28 295.292 601.28C295.292 599.26 293.232 597.94 290.332 597.94ZM305.57 612.18C305.024 612.18 304.637 612.067 304.41 611.84C304.197 611.613 304.09 611.327 304.09 610.98V610.62C304.09 610.273 304.197 609.987 304.41 609.76C304.637 609.533 305.024 609.42 305.57 609.42C306.117 609.42 306.497 609.533 306.71 609.76C306.937 609.987 307.05 610.273 307.05 610.62V610.98C307.05 611.327 306.937 611.613 306.71 611.84C306.497 612.067 306.117 612.18 305.57 612.18Z" fill="black"/>
</svg>