<svg xmlns="http://www.w3.org/2000/svg" width="9" height="26" viewBox="0 0 9 26" fill="none">
  <path d="M4.5 9.48438C6.44336 9.48438 8.01562 11.0566 8.01562 13C8.01562 14.9434 6.44336 16.5156 4.5 16.5156C2.55664 16.5156 0.984375 14.9434 0.984375 13C0.984375 11.0566 2.55664 9.48438 4.5 9.48438ZM0.984375 4.40625C0.984375 6.34961 2.55664 7.92188 4.5 7.92188C6.44336 7.92188 8.01562 6.34961 8.01562 4.40625C8.01562 2.46289 6.44336 0.890625 4.5 0.890625C2.55664 0.890625 0.984375 2.46289 0.984375 4.40625ZM0.984375 21.5938C0.984375 23.5371 2.55664 25.1094 4.5 25.1094C6.44336 25.1094 8.01562 23.5371 8.01562 21.5938C8.01562 19.6504 6.44336 18.0781 4.5 18.0781C2.55664 18.0781 0.984375 19.6504 0.984375 21.5938Z" fill="#D9D9D9"/>
</svg>