<svg xmlns="http://www.w3.org/2000/svg" width="26" height="30" viewBox="0 0 26 30" fill="none">
  <path d="M23.5625 1.875H2.4375C1.0918 1.875 0 3.13477 0 4.6875V25.3125C0 26.8652 1.0918 28.125 2.4375 28.125H23.5625C24.9082 28.125 26 26.8652 26 25.3125V4.6875C26 3.13477 24.9082 1.875 23.5625 1.875ZM19.3172 18.8965C19.5609 19.1777 19.5609 19.6348 19.3172 19.916L17.2605 22.2891C17.0168 22.5703 16.6207 22.5703 16.377 22.2891L13 18.3574L9.62305 22.2891C9.3793 22.5703 8.9832 22.5703 8.73945 22.2891L6.68281 19.916C6.43906 19.6348 6.43906 19.1777 6.68281 18.8965L10.0902 15L6.68281 11.1035C6.43906 10.8223 6.43906 10.3652 6.68281 10.084L8.73945 7.71094C8.9832 7.42969 9.3793 7.42969 9.62305 7.71094L13 11.6426L16.377 7.71094C16.6207 7.42969 17.0168 7.42969 17.2605 7.71094L19.3172 10.084C19.5609 10.3652 19.5609 10.8223 19.3172 11.1035L15.9098 15L19.3172 18.8965Z" fill="white"/>
</svg>