<svg xmlns="http://www.w3.org/2000/svg" width="15" height="16" viewBox="0 0 15 16" fill="none">
  <g clip-path="url(#clip0_765_577)">
    <path d="M7.5 0.734375C3.48633 0.734375 0.234375 3.98633 0.234375 8C0.234375 12.0137 3.48633 15.2656 7.5 15.2656C11.5137 15.2656 14.7656 12.0137 14.7656 8C14.7656 3.98633 11.5137 0.734375 7.5 0.734375ZM9.84375 5.65625C10.3623 5.65625 10.7812 6.0752 10.7812 6.59375C10.7812 7.1123 10.3623 7.53125 9.84375 7.53125C9.3252 7.53125 8.90625 7.1123 8.90625 6.59375C8.90625 6.0752 9.3252 5.65625 9.84375 5.65625ZM5.15625 5.65625C5.6748 5.65625 6.09375 6.0752 6.09375 6.59375C6.09375 7.1123 5.6748 7.53125 5.15625 7.53125C4.6377 7.53125 4.21875 7.1123 4.21875 6.59375C4.21875 6.0752 4.6377 5.65625 5.15625 5.65625ZM10.8633 10.6426C10.0283 11.6445 8.80371 12.2188 7.5 12.2188C6.19629 12.2188 4.97168 11.6445 4.13672 10.6426C3.73828 10.165 4.45898 9.56738 4.85742 10.042C5.51367 10.8301 6.47461 11.2783 7.5 11.2783C8.52539 11.2783 9.48633 10.8271 10.1426 10.042C10.5352 9.56738 11.2588 10.165 10.8633 10.6426Z" fill="black"/>
  </g>
  <defs>
    <clipPath id="clip0_765_577">
      <rect width="15" height="15" fill="white" transform="translate(0 0.5)"/>
    </clipPath>
  </defs>
</svg>